<?xml version="1.0" encoding="utf-8"?>
<!-- Generator: Adobe Illustrator 15.0.2, SVG Export Plug-In . SVG Version: 6.00 Build 0)  -->
<!DOCTYPE svg PUBLIC "-//W3C//DTD SVG 1.1//EN" "http://www.w3.org/Graphics/SVG/1.1/DTD/svg11.dtd">
<svg version="1.1" id="Layer_1" xmlns="http://www.w3.org/2000/svg" xmlns:xlink="http://www.w3.org/1999/xlink" x="0px" y="0px"
	 width="40px" height="40px" viewBox="0 0 40 40" enable-background="new 0 0 40 40" xml:space="preserve">
<circle fill="none" stroke="#231F20" stroke-miterlimit="10" cx="20" cy="19.931" r="17.997"/>
<g>
	<path d="M18.629,22.912v-0.516c0-0.744,0.114-1.356,0.343-1.836c0.229-0.48,0.655-0.987,1.278-1.521
		c0.865-0.731,1.41-1.281,1.636-1.65c0.226-0.369,0.339-0.814,0.339-1.336c0-0.648-0.208-1.149-0.625-1.502
		c-0.417-0.354-1.016-0.529-1.798-0.529c-0.502,0-0.992,0.059-1.469,0.176c-0.477,0.118-1.024,0.333-1.641,0.645l-0.563-1.288
		c1.202-0.63,2.458-0.944,3.768-0.944c1.215,0,2.159,0.299,2.833,0.896c0.674,0.598,1.011,1.44,1.011,2.528
		c0,0.464-0.062,0.873-0.186,1.226s-0.307,0.687-0.548,1.002c-0.242,0.314-0.763,0.821-1.564,1.521
		c-0.643,0.547-1.067,1.001-1.273,1.363c-0.207,0.363-0.31,0.847-0.31,1.45v0.315H18.629z M18.162,25.745
		c0-0.865,0.381-1.298,1.145-1.298c0.369,0,0.653,0.111,0.854,0.334c0.201,0.223,0.301,0.544,0.301,0.964
		c0,0.406-0.102,0.723-0.305,0.949c-0.204,0.226-0.487,0.338-0.849,0.338c-0.331,0-0.604-0.1-0.82-0.3
		C18.27,26.531,18.162,26.202,18.162,25.745z"/>
</g>
</svg>
