<?xml version="1.0" encoding="utf-8"?>
<!-- Generator: Adobe Illustrator 15.0.2, SVG Export Plug-In . SVG Version: 6.00 Build 0)  -->
<!DOCTYPE svg PUBLIC "-//W3C//DTD SVG 1.1//EN" "http://www.w3.org/Graphics/SVG/1.1/DTD/svg11.dtd">
<svg version="1.1" id="Layer_1" xmlns="http://www.w3.org/2000/svg" xmlns:xlink="http://www.w3.org/1999/xlink" x="0px" y="0px"
	 width="189.357px" height="200px" viewBox="0 0 189.357 200" enable-background="new 0 0 189.357 200" xml:space="preserve">
<g>
	<g>
		<path fill="#65CCAA" d="M48.662,11.6c21.911-10.834,73.676-14.297,103.532,2.408c29.854,16.705,35.921,43.373,34.43,66.453
			s-18.778,51.284-36.838,60.674c-18.058,9.391-52.7,13.482-52.7,13.482l-0.012,35.634l-20-34.188c0,0-73.194-19.742-74.638-63.082
			C0.99,49.642,26.751,22.434,48.662,11.6z"/>
		<path fill="#CAFFEE" d="M99.599,199.574l-24.193-41.355c-4.135-1.197-20.053-6.111-36.346-15.24
			c-24.992-14-38.53-31.262-39.152-49.914c-0.675-20.264,4.296-38.553,14.775-54.361c8.346-12.589,20.015-23.02,32.857-29.371
			c11.712-5.791,31.261-9.388,51.02-9.388c21.717,0,41.203,4.21,54.868,11.856c14.139,7.911,24.25,18.688,30.054,32.034
			c4.646,10.683,6.552,23.06,5.664,36.788c-1.527,23.645-19.375,52.969-38.194,62.754c-15.797,8.215-43.285,12.381-51.339,13.465
			L99.599,199.574z M98.56,5.001c-19.029,0-37.72,3.396-48.777,8.864C37.727,19.826,26.758,29.64,18.898,41.497
			C9.01,56.412,4.322,73.705,4.961,92.896c1.367,40.995,72.057,60.532,72.771,60.725l1,0.27l15.815,27.039l0.011-28.56l2.23-0.265
			c0.342-0.041,34.396-4.148,51.83-13.215c17.471-9.084,34.052-36.466,35.48-58.594c1.885-29.164-9.267-50.725-33.143-64.083
			C138.035,8.983,119.427,5.001,98.56,5.001z"/>
	</g>
	<g enable-background="new    ">
		<path fill="#020202" d="M87.765,105.275v-3.859c0-5.575,0.857-10.161,2.573-13.76c1.715-3.597,4.907-7.397,9.578-11.4
			c6.479-5.479,10.565-9.601,12.258-12.365c1.69-2.763,2.538-6.099,2.538-10.007c0-4.86-1.563-8.612-4.682-11.257
			c-3.122-2.645-7.613-3.967-13.474-3.967c-3.765,0-7.434,0.44-11.007,1.322s-7.673,2.49-12.294,4.824l-4.217-9.649
			c9.006-4.717,18.417-7.076,28.232-7.076c9.102,0,16.178,2.241,21.229,6.719c5.051,4.479,7.576,10.793,7.576,18.941
			c0,3.479-0.464,6.54-1.393,9.185c-0.93,2.645-2.3,5.146-4.11,7.505c-1.812,2.359-5.718,6.159-11.722,11.4
			c-4.814,4.099-7.994,7.505-9.543,10.222c-1.549,2.716-2.322,6.338-2.322,10.864v2.358H87.765z M84.262,126.504
			c0-6.48,2.859-9.721,8.577-9.721c2.763,0,4.896,0.834,6.397,2.501c1.5,1.669,2.251,4.074,2.251,7.22
			c0,3.05-0.763,5.421-2.287,7.111c-1.526,1.691-3.646,2.538-6.361,2.538c-2.479,0-4.528-0.751-6.147-2.252
			C85.072,132.4,84.262,129.935,84.262,126.504z"/>
	</g>
</g>
</svg>
